<svg width="141" height="51" viewBox="0 0 141 51" fill="none" xmlns="http://www.w3.org/2000/svg">
<path d="M14.1094 28H11.707V19.5977C11.707 18.7695 11.5508 17.9922 11.2383 17.2656C10.9258 16.5391 10.4961 15.9062 9.94922 15.3672C9.41016 14.8203 8.77344 14.3906 8.03906 14.0781C7.3125 13.7578 6.53516 13.5977 5.70703 13.5977H4.41798V28H2.01562V11.1953H5.70703C6.47266 11.1953 7.20704 11.2969 7.91016 11.5C8.62109 11.6953 9.28516 11.9727 9.90234 12.332C10.5195 12.6914 11.082 13.1211 11.5898 13.6211C12.0977 14.1211 12.5391 14.6758 12.9141 15.2852C13.2812 14.6758 13.7188 14.1211 14.2266 13.6211C14.7344 13.1211 15.2969 12.6914 15.9141 12.332C16.5312 11.9727 17.1914 11.6953 17.8945 11.5C18.6055 11.2969 19.3438 11.1953 20.1094 11.1953H23.8125V28H21.4102V13.5977H20.1094C19.2812 13.5977 18.5039 13.7578 17.7773 14.0781C17.0508 14.3906 16.4141 14.8203 15.8672 15.3672C15.3281 15.9062 14.8984 16.5391 14.5781 17.2656C14.2656 17.9922 14.1094 18.7695 14.1094 19.5977V28ZM42.5859 28H30.5859C30 28 29.4531 27.8906 28.9453 27.6719C28.4375 27.4531 27.9922 27.1562 27.6094 26.7812C27.2266 26.3984 26.9258 25.9531 26.707 25.4453C26.4883 24.9297 26.3789 24.3828 26.3789 23.8047C26.3789 23.2188 26.4883 22.6719 26.707 22.1641C26.9258 21.6562 27.2266 21.2109 27.6094 20.8281C27.9922 20.4453 28.4375 20.1445 28.9453 19.9258C29.4531 19.707 30 19.5977 30.5859 19.5977H38.9766V22H30.5859C30.3359 22 30.1016 22.0508 29.8828 22.1523C29.6641 22.2461 29.4727 22.375 29.3086 22.5391C29.1445 22.7031 29.0156 22.8945 28.9219 23.1133C28.8281 23.332 28.7812 23.5625 28.7812 23.8047C28.7812 24.0547 28.8281 24.2891 28.9219 24.5078C29.0156 24.7188 29.1445 24.9062 29.3086 25.0703C29.4727 25.2344 29.6641 25.3633 29.8828 25.457C30.1016 25.5508 30.3359 25.5977 30.5859 25.5977H40.1836V19C40.1836 18.7578 40.1328 18.5273 40.0312 18.3086C39.9375 18.0898 39.8086 17.8984 39.6445 17.7344C39.4805 17.5703 39.2891 17.4414 39.0703 17.3477C38.8516 17.2461 38.6211 17.1953 38.3789 17.1953H28.7812V14.8047H38.3789C38.9648 14.8047 39.5117 14.9141 40.0195 15.1328C40.5273 15.3516 40.9727 15.6523 41.3555 16.0352C41.7383 16.4102 42.0391 16.8516 42.2578 17.3594C42.4766 17.8672 42.5859 18.4141 42.5859 19V28ZM50.5898 28H48.1875V17.1953H44.5898V14.8047H48.1875V10H50.5898V14.8047H58.9922V17.1953H50.5898V28ZM73.9453 17.1953H64.9453C64.6953 17.1953 64.4609 17.2461 64.2422 17.3477C64.0234 17.4414 63.832 17.5703 63.668 17.7344C63.5039 17.8984 63.375 18.0898 63.2812 18.3086C63.1875 18.5273 63.1406 18.7578 63.1406 19V28H60.7383V19C60.7383 18.4141 60.8477 17.8672 61.0664 17.3594C61.2852 16.8516 61.5859 16.4102 61.9688 16.0352C62.3516 15.6523 62.7969 15.3516 63.3047 15.1328C63.8125 14.9141 64.3594 14.8047 64.9453 14.8047H73.9453V17.1953ZM78.8789 11.8047C78.8789 12.0547 78.832 12.2891 78.7383 12.5078C78.6445 12.7188 78.5156 12.9062 78.3516 13.0703C78.1875 13.2344 77.9961 13.3633 77.7773 13.457C77.5586 13.5508 77.3281 13.5977 77.0859 13.5977C76.8359 13.5977 76.6016 13.5508 76.3828 13.457C76.1641 13.3633 75.9727 13.2344 75.8086 13.0703C75.6445 12.9062 75.5156 12.7188 75.4219 12.5078C75.3281 12.2891 75.2812 12.0547 75.2812 11.8047C75.2812 11.5625 75.3281 11.332 75.4219 11.1133C75.5156 10.8945 75.6445 10.7031 75.8086 10.5391C75.9727 10.375 76.1641 10.2461 76.3828 10.1523C76.6016 10.0508 76.8359 10 77.0859 10C77.3281 10 77.5586 10.0508 77.7773 10.1523C77.9961 10.2461 78.1875 10.375 78.3516 10.5391C78.5156 10.7031 78.6445 10.8945 78.7383 11.1133C78.832 11.332 78.8789 11.5625 78.8789 11.8047ZM78.2812 28H75.8789V14.8047H78.2812V28Z" fill="white"/>
<path d="M95.3086 28H87.457C86.5508 27.9922 85.6992 27.8164 84.9023 27.4727C84.1055 27.1211 83.4102 26.6484 82.8164 26.0547C82.2305 25.4531 81.7656 24.7539 81.4219 23.957C81.0781 23.1602 80.9062 22.3086 80.9062 21.4023C80.9062 20.4961 81.0781 19.6445 81.4219 18.8477C81.7656 18.043 82.2305 17.3438 82.8164 16.75C83.4102 16.1484 84.1055 15.6758 84.9023 15.332C85.6992 14.9805 86.5508 14.8047 87.457 14.8047H95.3086V17.1953H87.457C86.8789 17.2031 86.3359 17.3203 85.8281 17.5469C85.3281 17.7656 84.8906 18.0664 84.5156 18.4492C84.1406 18.8242 83.8438 19.2656 83.625 19.7734C83.4141 20.2812 83.3086 20.8242 83.3086 21.4023C83.3086 21.9805 83.4141 22.5234 83.625 23.0312C83.8438 23.5391 84.1406 23.9844 84.5156 24.3672C84.8906 24.7422 85.3281 25.043 85.8281 25.2695C86.3359 25.4883 86.8789 25.5977 87.457 25.5977H95.3086V28ZM113.754 21.4023C113.754 22.3086 113.582 23.1602 113.238 23.957C112.895 24.7539 112.426 25.4531 111.832 26.0547C111.246 26.6484 110.555 27.1211 109.758 27.4727C108.961 27.8164 108.109 27.9922 107.203 28H103.512C102.605 27.9922 101.754 27.8164 100.957 27.4727C100.16 27.1211 99.4648 26.6484 98.8711 26.0547C98.2852 25.4531 97.8203 24.7539 97.4766 23.957C97.1328 23.1602 96.9609 22.3086 96.9609 21.4023C96.9609 20.4961 97.1328 19.6445 97.4766 18.8477C97.8203 18.043 98.2852 17.3438 98.8711 16.75C99.4648 16.1484 100.16 15.6758 100.957 15.332C101.754 14.9805 102.605 14.8047 103.512 14.8047H107.203C107.805 14.8047 108.387 14.8828 108.949 15.0391C109.512 15.1953 110.035 15.418 110.52 15.707C111.004 15.9961 111.445 16.3438 111.844 16.75C112.242 17.1484 112.582 17.5938 112.863 18.0859C113.145 18.5703 113.363 19.0938 113.52 19.6562C113.676 20.2188 113.754 20.8008 113.754 21.4023ZM111.363 21.4023C111.363 20.8242 111.254 20.2812 111.035 19.7734C110.816 19.2656 110.52 18.8242 110.145 18.4492C109.77 18.0664 109.328 17.7656 108.82 17.5469C108.32 17.3203 107.781 17.2031 107.203 17.1953H103.512C102.934 17.2031 102.391 17.3203 101.883 17.5469C101.383 17.7656 100.945 18.0664 100.57 18.4492C100.195 18.8242 99.8984 19.2656 99.6797 19.7734C99.4688 20.2812 99.3633 20.8242 99.3633 21.4023C99.3633 21.9805 99.4688 22.5234 99.6797 23.0312C99.8984 23.5391 100.195 23.9844 100.57 24.3672C100.945 24.7422 101.383 25.043 101.883 25.2695C102.391 25.4883 102.934 25.5977 103.512 25.5977H107.203C107.781 25.5977 108.32 25.4883 108.82 25.2695C109.328 25.043 109.77 24.7422 110.145 24.3672C110.52 23.9844 110.816 23.5391 111.035 23.0312C111.254 22.5234 111.363 21.9805 111.363 21.4023ZM131.098 28H128.695V17.1953H122.098C121.52 17.1953 120.977 17.3086 120.469 17.5352C119.969 17.7539 119.531 18.0547 119.156 18.4375C118.781 18.8125 118.484 19.2578 118.266 19.7734C118.055 20.2812 117.949 20.8242 117.949 21.4023C117.949 21.9805 118.055 22.5234 118.266 23.0312C118.484 23.5312 118.781 23.9727 119.156 24.3555C119.531 24.7305 119.969 25.0312 120.469 25.2578C120.977 25.4766 121.52 25.5898 122.098 25.5977H127.5V28H122.098C121.191 28 120.34 27.8281 119.543 27.4844C118.746 27.1328 118.051 26.6602 117.457 26.0664C116.871 25.4648 116.406 24.7656 116.062 23.9688C115.719 23.1641 115.547 22.3086 115.547 21.4023C115.547 20.4961 115.719 19.6445 116.062 18.8477C116.406 18.0508 116.871 17.3555 117.457 16.7617C118.051 16.1602 118.746 15.6875 119.543 15.3438C120.34 14.9922 121.191 14.8125 122.098 14.8047H128.695V10H131.098V28Z" fill="#059FF5"/>
<g filter="url(#filter0_d_8_117)">
<path d="M99.176 0H110.145C110.145 0 111.262 0.605424 111.755 1.21066C112.151 1.69734 112.5 2.6231 112.5 2.6231V9.57H110.592L109.34 8.07623H104.75H100.249L98.4904 9.57H97V2.6231C97 2.6231 97.3353 1.70275 97.7154 1.21066C98.165 0.628618 99.176 0 99.176 0Z" fill="#059FF5"/>
<path d="M101.114 5.88007C102.168 5.88007 103.022 5.05412 103.022 4.03525C103.022 3.01638 102.168 2.19043 101.114 2.19043C100.06 2.19043 99.2063 3.01638 99.2063 4.03525C99.2063 5.05412 100.06 5.88007 101.114 5.88007Z" fill="#1E1E1E"/>
<path d="M108.148 5.88007C109.202 5.88007 110.056 5.05412 110.056 4.03525C110.056 3.01638 109.202 2.19043 108.148 2.19043C107.094 2.19043 106.24 3.01638 106.24 4.03525C106.24 5.05412 107.094 5.88007 108.148 5.88007Z" fill="#1E1E1E"/>
</g>
<g filter="url(#filter1_d_8_117)">
<path d="M111.333 42.5676L100.361 42.5738C100.361 42.5738 99.243 41.9693 98.7501 41.3645C98.3538 40.8783 98.0039 39.9531 98.0039 39.9531L98 33.0088L99.9082 33.0077L101.161 34.5002L105.753 34.4976L110.255 34.495L112.014 33.0008L113.504 33L113.508 39.9443C113.508 39.9443 113.174 40.8645 112.794 41.3566C112.344 41.9387 111.333 42.5676 111.333 42.5676Z" fill="#059FF5"/>
<path d="M109.392 36.6902C108.338 36.6908 107.484 37.517 107.485 38.5354C107.485 39.5539 108.34 40.3791 109.394 40.3785C110.448 40.3779 111.302 39.5518 111.301 38.5333C111.301 37.5148 110.446 36.6897 109.392 36.6902Z" fill="#1E1E1E"/>
<path d="M102.355 36.6946C101.301 36.6952 100.447 37.5214 100.448 38.5398C100.448 39.5583 101.303 40.3835 102.357 40.3829C103.411 40.3823 104.265 39.5562 104.264 38.5377C104.264 37.5192 103.409 36.6941 102.355 36.6946Z" fill="#1E1E1E"/>
</g>
<defs>
<filter id="filter0_d_8_117" x="93" y="0" width="23.5" height="17.5698" filterUnits="userSpaceOnUse" color-interpolation-filters="sRGB">
<feFlood flood-opacity="0" result="BackgroundImageFix"/>
<feColorMatrix in="SourceAlpha" type="matrix" values="0 0 0 0 0 0 0 0 0 0 0 0 0 0 0 0 0 0 127 0" result="hardAlpha"/>
<feOffset dy="4"/>
<feGaussianBlur stdDeviation="2"/>
<feComposite in2="hardAlpha" operator="out"/>
<feColorMatrix type="matrix" values="0 0 0 0 0 0 0 0 0 0 0 0 0 0 0 0 0 0 0.25 0"/>
<feBlend mode="normal" in2="BackgroundImageFix" result="effect1_dropShadow_8_117"/>
<feBlend mode="normal" in="SourceGraphic" in2="effect1_dropShadow_8_117" result="shape"/>
</filter>
<filter id="filter1_d_8_117" x="94" y="33" width="23.508" height="17.5737" filterUnits="userSpaceOnUse" color-interpolation-filters="sRGB">
<feFlood flood-opacity="0" result="BackgroundImageFix"/>
<feColorMatrix in="SourceAlpha" type="matrix" values="0 0 0 0 0 0 0 0 0 0 0 0 0 0 0 0 0 0 127 0" result="hardAlpha"/>
<feOffset dy="4"/>
<feGaussianBlur stdDeviation="2"/>
<feComposite in2="hardAlpha" operator="out"/>
<feColorMatrix type="matrix" values="0 0 0 0 0 0 0 0 0 0 0 0 0 0 0 0 0 0 0.25 0"/>
<feBlend mode="normal" in2="BackgroundImageFix" result="effect1_dropShadow_8_117"/>
<feBlend mode="normal" in="SourceGraphic" in2="effect1_dropShadow_8_117" result="shape"/>
</filter>
</defs>
</svg>
